<svg viewBox="0 0 48 48" xmlns="http://www.w3.org/2000/svg" xmlns:xlink="http://www.w3.org/1999/xlink" width="48.000000" height="48.000000" fill="none">
	<rect id="icons8-vk 1" width="48.000000" height="48.000000" x="0.000000" y="0.000000" />
	<path id="Vector 1" d="M5.61097 33.694C1.99897 26.777 3.21497 16.142 8.39297 10.297C11.681 6.58602 17.04 4.12002 21.98 3.60802C26.92 3.09602 32.1 4.51002 35.867 7.73702C36.893 8.61602 37.807 9.61502 38.696 10.631C39.597 11.661 40.476 12.715 41.23 13.856C43.702 17.597 44.734 22.259 44.07 26.69C43.406 31.121 41.053 35.279 37.593 38.136C36.539 39.006 35.393 39.756 34.249 40.504C33.14 41.229 32.025 41.958 30.814 42.498C29.288 43.178 27.642 43.545 25.996 43.839C23.375 44.307 20.6 44.588 18.108 43.652C17.036 43.25 16.051 42.633 14.962 42.279C12.14 41.36 8.87597 42.507 5.90997 42.385C5.67897 42.376 5.43697 42.356 5.23997 42.235C4.93897 42.05 4.81597 41.674 4.78197 41.323C4.63197 39.766 5.95497 38.177 6.21497 36.635C6.38597 35.625 6.08497 34.602 5.61097 33.694Z" fill="rgb(75,123,178)" fill-rule="nonzero" />
	<path id="Vector 2" d="M42.6179 15.234C41.4699 13.022 39.8289 11.095 38.1479 9.27102C36.5939 7.58402 34.8399 6.12902 32.7869 5.08802C24.9219 1.09902 14.5739 3.13902 8.48892 9.45802C5.79692 12.253 4.19492 15.984 3.48292 19.763C2.75692 23.61 2.86192 27.711 4.11792 31.44C4.40792 32.301 4.76392 33.139 5.17992 33.947C5.79892 35.176 5.90992 36.338 5.39892 37.62C4.98792 38.649 4.39292 39.636 4.28892 40.762C4.20492 41.669 4.49992 42.653 5.49692 42.844C6.59792 43.054 7.84892 42.834 8.94892 42.708C10.1839 42.567 11.4219 42.395 12.6679 42.423C13.9759 42.452 15.1179 42.819 16.2899 43.38C17.3509 43.889 18.4009 44.357 19.5669 44.57C20.7379 44.784 21.9329 44.813 23.1179 44.725C25.5989 44.54 28.2149 44.09 30.5289 43.158C32.8199 42.236 34.9729 40.733 36.9489 39.268C40.5019 36.635 43.1139 32.868 44.2019 28.566C45.3279 24.115 44.7309 19.303 42.6179 15.234ZM43.7279 25.229C43.4469 29.441 41.5749 33.503 38.6239 36.511C37.0069 38.159 35.0509 39.41 33.1129 40.645C32.0719 41.309 30.9999 41.93 29.8379 42.357C28.6959 42.776 27.5059 43.05 26.3119 43.275C24.0229 43.707 21.5929 44.048 19.2949 43.493C18.1639 43.22 17.1679 42.666 16.1129 42.199C15.1429 41.77 14.1559 41.508 13.0949 41.441C10.7939 41.295 8.52793 41.922 6.22993 41.894C6.00693 41.891 5.63793 41.934 5.45793 41.776C5.25893 41.6 5.26393 41.186 5.27393 40.95C5.29693 40.388 5.51893 39.832 5.73693 39.321C6.12993 38.399 6.62493 37.497 6.73693 36.486C6.85593 35.417 6.51893 34.387 6.04292 33.442C4.35992 30.177 3.84292 26.4 4.09592 22.765C4.35292 19.078 5.43792 15.357 7.50292 12.269C9.73193 8.93603 13.2659 6.60603 17.0009 5.27203C20.9699 3.85403 25.2639 3.57702 29.3269 4.78202C31.3469 5.38102 33.2719 6.33203 34.9399 7.62402C36.7859 9.05403 38.3699 10.903 39.8049 12.735C42.5849 16.282 44.0289 20.718 43.7279 25.229Z" fill="rgb(1,1,1)" fill-rule="nonzero" />
	<path id="Vector 3" d="M10.573 17.825C10.184 20.882 11.297 23.128 12.8 25.454C15.108 29.027 18.189 32.504 22.332 33.394C23.502 33.645 25.046 33.466 25.421 32.323C25.652 31.62 25.313 30.871 25.215 30.137C25.117 29.403 25.508 28.442 26.242 28.505C26.626 28.538 26.92 28.849 27.175 29.139C28.023 30.104 28.872 31.069 29.72 32.034C30.378 32.782 31.552 33.538 32.449 33.414C33.093 33.325 34.25 33.17 34.8781 33.002C35.049 32.956 35.229 32.9 35.3491 32.769C35.511 32.592 35.523 32.327 35.508 32.087C35.453 31.251 35.1551 30.432 34.661 29.758C33.7701 28.541 32.247 27.754 31.798 26.311C31.3211 24.781 32.259 23.188 33.2621 21.941C34.2651 20.694 35.438 19.401 35.521 17.799C35.537 17.483 35.4741 17.108 35.1931 16.966C35.048 16.892 34.8771 16.9 34.7141 16.912C33.1421 17.026 31.587 17.369 30.112 17.926C29.823 18.035 29.526 18.16 29.325 18.396C29.061 18.705 29.015 19.138 28.96 19.542C28.67 21.666 27.606 23.787 25.595 24.499C25.498 22.809 25.531 21.242 25.695 19.557C25.748 19.011 25.785 18.377 25.387 18.001C25.088 17.719 24.642 17.683 24.232 17.667C22.719 17.609 21.204 17.619 19.692 17.697C19.228 17.721 18.633 17.873 18.594 18.338C18.572 18.606 18.762 18.837 18.923 19.052C20.118 20.645 20.151 22.802 20.135 24.798C20.131 25.282 19.985 25.925 19.504 25.941C19.204 25.951 18.973 25.687 18.796 25.443C17.583 23.774 16.609 21.93 15.913 19.984C15.689 19.358 15.484 18.803 15.045 18.306C14.02 17.15 11.48 17.663 10.573 17.825Z" fill="rgb(214,229,229)" fill-rule="nonzero" />
	<path id="Vector 4" d="M35.856 31.13C35.548 29.95 34.802 29.066 33.933 28.251C33.032 27.406 32.047 26.533 32.187 25.176C32.468 22.435 35.568 20.969 35.974 18.23C36.05 17.718 36.07 17.099 35.67 16.703C35.195 16.233 34.4 16.43 33.819 16.503C33.03 16.602 32.248 16.752 31.479 16.96C30.777 17.15 29.978 17.345 29.354 17.729C28.802 18.069 28.596 18.623 28.502 19.235C28.402 19.887 28.282 20.526 28.054 21.149C27.673 22.187 27.018 23.136 26.079 23.708C26.041 22.483 26.051 21.259 26.153 20.036C26.242 18.967 26.357 17.648 25.07 17.274C24.504 17.11 23.858 17.151 23.277 17.139C22.48 17.123 21.683 17.127 20.887 17.149C20.05 17.172 18.471 17.021 18.14 18.074C17.968 18.621 18.321 19.043 18.607 19.465C18.99 20.031 19.234 20.657 19.388 21.321C19.53 21.931 19.588 22.556 19.616 23.181C19.643 23.795 19.733 24.518 19.605 25.123C19.502 25.608 19.312 25.299 19.097 25.012C18.921 24.776 18.76 24.528 18.599 24.281C18.197 23.663 17.826 23.025 17.488 22.37C16.874 21.178 16.539 19.852 15.906 18.68C14.808 16.649 12.365 16.997 10.441 17.343C10.179 17.39 10.079 17.583 10.087 17.785C10.084 17.8 10.076 17.81 10.074 17.826C9.76998 20.444 10.592 22.816 11.942 25.028C13.248 27.17 14.784 29.245 16.67 30.914C18.38 32.428 20.608 33.811 22.943 33.983C23.861 34.051 24.922 33.856 25.541 33.117C25.878 32.714 26.017 32.202 25.998 31.681C25.974 31.011 25.606 30.329 25.722 29.66C25.756 29.466 25.846 29.142 26.042 29.054C26.368 28.907 26.626 29.28 26.823 29.495C27.365 30.087 27.884 30.701 28.414 31.304C29.295 32.306 30.148 33.387 31.475 33.802C32.435 34.102 33.623 33.781 34.581 33.585C35.053 33.489 35.554 33.382 35.83 32.95C36.155 32.439 35.998 31.676 35.856 31.13ZM34.745 32.521C34.368 32.712 33.768 32.721 33.358 32.784C32.855 32.861 32.328 32.998 31.826 32.861C30.58 32.521 29.768 31.333 28.96 30.415C28.483 29.873 28.016 29.32 27.528 28.787C27.184 28.411 26.781 28.031 26.241 28.006C25.345 27.965 24.819 28.821 24.722 29.614C24.602 30.597 25.561 32.093 24.46 32.734C23.591 33.239 22.428 32.949 21.541 32.667C20.468 32.326 19.467 31.789 18.549 31.141C16.418 29.637 14.751 27.53 13.336 25.365C11.896 23.16 10.868 20.897 11.048 18.249C11.718 18.135 12.391 18.047 13.073 18.078C14.154 18.127 14.801 18.564 15.225 19.574C15.718 20.751 16.127 21.938 16.726 23.071C17.253 24.07 17.856 25.291 18.679 26.082C19.432 26.805 20.36 26.3 20.568 25.39C20.795 24.397 20.653 23.175 20.536 22.173C20.404 21.042 20.114 19.915 19.469 18.962C19.395 18.853 19.295 18.749 19.231 18.636C19.118 18.437 19.082 18.407 19.248 18.282C19.405 18.164 19.75 18.196 19.929 18.186C20.645 18.148 21.363 18.134 22.08 18.131C22.849 18.128 23.642 18.103 24.408 18.176C24.841 18.217 25.146 18.335 25.218 18.808C25.267 19.127 25.2 19.479 25.171 19.798C25.032 21.364 25.009 22.931 25.094 24.5C25.11 24.796 25.405 25.104 25.727 24.982C27.681 24.243 28.837 22.447 29.295 20.469C29.406 19.992 29.392 19.44 29.569 18.983C29.806 18.374 30.751 18.216 31.31 18.048C31.921 17.865 32.543 17.717 33.171 17.605C33.534 17.541 33.898 17.489 34.264 17.452C34.597 17.418 34.941 17.258 35.02 17.639C35.122 18.13 34.815 18.81 34.601 19.234C34.301 19.827 33.895 20.364 33.481 20.881C32.746 21.798 31.983 22.692 31.531 23.791C31.096 24.85 31.027 26.002 31.56 27.039C32.007 27.908 32.792 28.535 33.482 29.201C33.899 29.604 34.287 30.026 34.561 30.542C34.793 30.977 35.358 32.211 34.745 32.521Z" fill="rgb(1,1,1)" fill-rule="nonzero" />
</svg>
