<svg viewBox="0 0 26.0105 17.5963" xmlns="http://www.w3.org/2000/svg" xmlns:xlink="http://www.w3.org/1999/xlink" width="26.010498" height="17.596252" fill="none" customFrame="#000000">
	<path id="Vector 4" d="M25.8451 14.7306C25.5371 13.5506 24.7911 12.6666 23.9221 11.8516C23.0211 11.0066 22.0361 10.1336 22.1761 8.7766C22.4571 6.0356 25.5571 4.5696 25.9631 1.8306C26.0391 1.3186 26.0591 0.699596 25.6591 0.303596C25.1841 -0.166403 24.3891 0.0305958 23.8081 0.103596C23.0191 0.202597 22.2371 0.352596 21.4681 0.560596C20.7661 0.750597 19.9671 0.945597 19.3431 1.3296C18.7911 1.6696 18.5851 2.22359 18.4911 2.8356C18.3911 3.4876 18.2711 4.1266 18.0431 4.7496C17.6621 5.7876 17.0071 6.7366 16.0681 7.3086C16.0301 6.0836 16.0401 4.8596 16.1421 3.6366C16.2311 2.5676 16.3461 1.2486 15.0591 0.874596C14.4931 0.710596 13.8471 0.751596 13.2661 0.739595C12.4691 0.723595 11.6721 0.727596 10.8761 0.749596C10.0391 0.772596 8.46011 0.621595 8.12911 1.67459C7.95711 2.2216 8.31011 2.64359 8.59611 3.0656C8.97911 3.6316 9.22311 4.2576 9.37711 4.9216C9.51911 5.5316 9.57711 6.1566 9.60511 6.7816C9.63211 7.3956 9.72211 8.1186 9.59411 8.7236C9.49111 9.2086 9.30111 8.8996 9.08611 8.6126C8.91011 8.3766 8.74911 8.1286 8.58811 7.8816C8.18611 7.2636 7.81511 6.6256 7.47711 5.9706C6.86311 4.7786 6.52811 3.4526 5.89511 2.2806C4.79711 0.249596 2.35411 0.597595 0.430112 0.943596C0.168112 0.990597 0.0681114 1.1836 0.0761118 1.3856C0.0731115 1.40059 0.0651121 1.41059 0.0631123 1.4266C-0.240888 4.0446 0.581112 6.4166 1.93111 8.6286C3.23711 10.7706 4.77311 12.8456 6.65911 14.5146C8.36911 16.0286 10.5971 17.4116 12.9321 17.5836C13.8501 17.6516 14.9111 17.4566 15.5301 16.7176C15.8671 16.3146 16.0061 15.8026 15.9871 15.2816C15.9631 14.6116 15.5951 13.9296 15.7111 13.2606C15.7451 13.0666 15.8351 12.7426 16.0311 12.6546C16.3571 12.5076 16.6151 12.8806 16.8121 13.0956C17.3541 13.6876 17.8731 14.3016 18.4031 14.9046C19.2841 15.9066 20.1371 16.9876 21.4641 17.4026C22.4241 17.7026 23.6121 17.3816 24.5701 17.1856C25.0421 17.0896 25.5431 16.9826 25.8191 16.5506C26.1441 16.0396 25.9871 15.2766 25.8451 14.7306ZM24.7341 16.1216C24.3571 16.3126 23.7571 16.3216 23.3471 16.3846C22.8441 16.4616 22.3171 16.5986 21.8151 16.4616C20.5691 16.1216 19.7571 14.9336 18.9491 14.0156C18.4721 13.4736 18.0051 12.9206 17.5171 12.3876C17.1731 12.0116 16.7701 11.6316 16.2301 11.6066C15.3341 11.5656 14.8081 12.4216 14.7111 13.2146C14.5911 14.1976 15.5501 15.6936 14.4491 16.3346C13.5801 16.8396 12.4171 16.5496 11.5301 16.2676C10.4571 15.9266 9.45611 15.3896 8.53811 14.7416C6.40711 13.2376 4.74011 11.1306 3.32511 8.9656C1.88511 6.7606 0.857111 4.49759 1.03711 1.84959C1.70711 1.73559 2.38011 1.64759 3.06211 1.67859C4.14311 1.72759 4.79011 2.16459 5.21411 3.17459C5.70711 4.35159 6.11611 5.5386 6.71511 6.67159C7.24211 7.6706 7.84511 8.89159 8.66811 9.68259C9.42111 10.4056 10.3491 9.90059 10.5571 8.99059C10.7841 7.99759 10.6421 6.77559 10.5251 5.77359C10.3931 4.64259 10.1031 3.51559 9.45811 2.56259C9.38411 2.45359 9.28411 2.34959 9.22011 2.23659C9.10711 2.03759 9.07111 2.00759 9.23711 1.88259C9.39411 1.76459 9.73911 1.79659 9.91811 1.78659C10.6341 1.74859 11.3521 1.73459 12.0691 1.73159C12.8381 1.72859 13.6311 1.70359 14.3971 1.77659C14.8301 1.81759 15.1351 1.93559 15.2071 2.40859C15.2561 2.72759 15.1891 3.07959 15.1601 3.39859C15.0211 4.96459 14.9981 6.53159 15.0831 8.10059C15.0991 8.39659 15.3941 8.70459 15.7161 8.58259C17.6701 7.84359 18.8261 6.04759 19.2841 4.06959C19.3951 3.59259 19.3811 3.04059 19.5581 2.58359C19.7951 1.97459 20.7401 1.81659 21.2991 1.64859C21.9101 1.46559 22.5321 1.31759 23.1601 1.20559C23.5231 1.14159 23.8871 1.08959 24.2531 1.05259C24.5861 1.01859 24.9301 0.858591 25.0091 1.23959C25.1111 1.73059 24.8041 2.41059 24.5901 2.83459C24.2901 3.42759 23.8841 3.96459 23.4701 4.48159C22.7351 5.39859 21.9721 6.29259 21.5201 7.39159C21.0851 8.45059 21.0161 9.60259 21.5491 10.6396C21.9961 11.5086 22.7811 12.1356 23.4711 12.8016C23.8881 13.2046 24.2761 13.6266 24.5501 14.1426C24.7821 14.5776 25.3471 15.8116 24.7341 16.1216Z" fill="rgb(1,1,1)" fill-rule="nonzero" />
</svg>
